<svg width="32" height="32" viewBox="0 0 32 32" fill="none" xmlns="http://www.w3.org/2000/svg">
<g clip-path="url(#clip0_16502_25756)">
<path d="M32.0004 17.6234C31.9543 17.7612 31.9093 18.192 31.8762 18.3662C31.7581 18.9564 31.5579 19.527 31.2815 20.0616C30.3329 21.9027 28.5681 23.1853 26.5242 23.5192C25.8873 23.6227 25.4098 23.5766 24.8173 23.6311H10.8671H9.66706C9.47738 23.6352 9.23174 23.6311 9.06706 23.6311C8.90238 23.6311 8.68503 23.5502 8.57147 23.4894C8.15273 23.2631 8.15087 22.8211 8.18758 22.4103C8.24287 21.7313 8.44587 21.2059 8.78229 20.6136C9.50634 19.3405 10.7786 18.4742 12.2284 18.2672C14.2875 17.9769 15.6671 17.9339 16.7338 17.8671C17.8004 17.8004 18.8554 18.0337 18.8671 16.6672C18.8787 15.3007 17.3258 15.4887 17.3258 15.4887C17.3258 15.4887 9.80039 15.2607 5.73983 15.2607C5.42606 15.2279 5.1226 15.13 4.84891 14.9731C4.30416 14.6671 3.905 14.1553 3.74095 13.5525C3.58642 12.9708 3.67301 12.3514 3.98113 11.8344C4.29335 11.3054 4.80453 10.9236 5.40038 10.7743C5.79991 10.6759 6.72435 10.7145 6.72435 10.7145L26.1779 10.7744C27.1256 10.8521 28.0434 11.1434 28.8625 11.6264C30.2728 12.4561 31.3098 13.7962 31.7592 15.3694C31.8201 15.5782 31.8676 15.7905 31.9015 16.0053C31.9292 16.1861 31.9525 16.4292 32.0004 16.5997V17.6234Z" fill="black"/>
</g>
<defs>
<clipPath id="clip0_16502_25756">
<rect width="32" height="32" fill="white"/>
</clipPath>
</defs>
</svg>
